HIERARCHY
ROOT Hips
{
	OFFSET	0.00	0.00	0.00
	CHANNELS 6 Xposition Yposition Zposition Zrotation Xrotation Yrotation
	JOINT LeftUpLeg
	{
		OFFSET	 0.126116	-0.014019	-0.065224
		CHANNELS 3 Zrotation Xrotation Yrotation
		JOINT LeftLeg
		{
			OFFSET	 0.000000	 0.000000	 0.569914
			CHANNELS 3 Zrotation Xrotation Yrotation
			JOINT LeftFoot
			{
				OFFSET	 0.000000	 0.000000	 0.544423
				CHANNELS 3 Zrotation Xrotation Yrotation
				JOINT LeftToeBase
				{
					OFFSET	 0.000000	 0.000000	 0.207117
					CHANNELS 3 Zrotation Xrotation Yrotation
					End Site
					{
						OFFSET	 0.000000	 0.000000	 0.207117
					}
				}
			}
		}
	}
	JOINT RightUpLeg
	{
		OFFSET	-0.124023	-0.008373	-0.065224
		CHANNELS 3 Zrotation Xrotation Yrotation
		JOINT RightLeg
		{
			OFFSET	 0.000000	 0.000000	 0.570047
			CHANNELS 3 Zrotation Xrotation Yrotation
			JOINT RightFoot
			{
				OFFSET	 0.000000	 0.000000	 0.544354
				CHANNELS 3 Zrotation Xrotation Yrotation
				JOINT RightToeBase
				{
					OFFSET	 0.000000	 0.000000	 0.207540
					CHANNELS 3 Zrotation Xrotation Yrotation
					End Site
					{
						OFFSET	 0.000000	 0.000000	 0.207540
					}
				}
			}
		}
	}
	JOINT Spine
	{
		OFFSET	 0.000184	-0.007763	 0.117403
		CHANNELS 3 Zrotation Xrotation Yrotation
		JOINT Spine1
		{
			OFFSET	 0.000000	 0.000000	 0.137269
			CHANNELS 3 Zrotation Xrotation Yrotation
			JOINT Spine2
			{
				OFFSET	 0.000000	 0.000000	 0.156879
				CHANNELS 3 Zrotation Xrotation Yrotation
				JOINT LeftShoulder
				{
					OFFSET	 0.080501	-0.002496	 0.160144
					CHANNELS 3 Zrotation Xrotation Yrotation
					JOINT LeftArm
					{
						OFFSET	 0.000000	 0.000000	 0.164363
						CHANNELS 3 Zrotation Xrotation Yrotation
						JOINT LeftForeArm
						{
							OFFSET	 0.000000	 0.000000	 0.364576
							CHANNELS 3 Zrotation Xrotation Yrotation
							JOINT LeftHand
							{
								OFFSET	 0.000000	 0.000000	 0.360812
								CHANNELS 3 Zrotation Xrotation Yrotation
								JOINT LeftHandIndex1
								{
									OFFSET	 0.000000	 0.000000	 0.086006
									CHANNELS 3 Zrotation Xrotation Yrotation
									JOINT LeftHandIndex2
									{
										OFFSET	 0.000000	 0.000000	 0.047236
										CHANNELS 3 Zrotation Xrotation Yrotation
										JOINT LeftHandIndex3
										{
											OFFSET	-0.004284	-0.000551	 0.038166
											CHANNELS 3 Zrotation Xrotation Yrotation
											End Site
											{
												OFFSET	-0.004284	-0.000551	 0.038166
											}
										}
									}
								}
							}
						}
					}
				}
				JOINT Neck
				{
					OFFSET	 0.000000	 0.000000	 0.176489
					CHANNELS 3 Zrotation Xrotation Yrotation
					JOINT Head
					{
						OFFSET	 0.000000	-0.001747	 0.077940
						CHANNELS 3 Zrotation Xrotation Yrotation
						End Site
						{
							OFFSET	 0.000000	-0.001747	 0.077940
						}
					}
				}
				JOINT RightShoulder
				{
					OFFSET	-0.080363	 0.000306	 0.159706
					CHANNELS 3 Zrotation Xrotation Yrotation
					JOINT RightArm
					{
						OFFSET	 0.000000	 0.000000	 0.164196
						CHANNELS 3 Zrotation Xrotation Yrotation
						JOINT RightForeArm
						{
							OFFSET	 0.000000	 0.000000	 0.365611
							CHANNELS 3 Zrotation Xrotation Yrotation
							JOINT RightHand
							{
								OFFSET	 0.000000	 0.000000	 0.360648
								CHANNELS 3 Zrotation Xrotation Yrotation
								JOINT RightHandIndex1
								{
									OFFSET	 0.000000	 0.000000	 0.069977
									CHANNELS 3 Zrotation Xrotation Yrotation
									JOINT RightHandIndex2
									{
										OFFSET	 0.000000	 0.000000	 0.052305
										CHANNELS 3 Zrotation Xrotation Yrotation
										JOINT RightHandIndex3
										{
											OFFSET	 0.009002	-0.000782	 0.042196
											CHANNELS 3 Zrotation Xrotation Yrotation
											End Site
											{
												OFFSET	 0.009002	-0.000782	 0.042196
											}
										}
									}
								}
							}
						}
					}
				}
			}
		}
	}
}
MOTION
Frames:    12
Frame Time: 0.03333334
 0.012987	 0.040805	 1.200973	 4.834662	-1.167589	-2.728393	 2.955620	-11.343580	-172.822900	 0.870222	-39.047540	 0.326012	 56.965900	 81.744430	-61.054240	-2.369879	 31.534870	-0.068113	-8.338905	-31.414400	-175.813500	 10.471380	-50.377970	 8.694695	 14.025790	 74.507860	-9.903362	 2.358698	 33.039830	 0.104159	-7.542665	 8.535046	 2.073778	-2.104135	 2.270963	-1.472651	 3.248542	-2.351462	 1.619307	-93.924890	 58.935910	 175.420700	 16.169170	 35.345740	-38.703600	-1.654505	-0.047104	-0.744104	-1.313288	-20.147170	-7.821745	-4.870270	 19.236660	-2.789799	-3.879936	 21.493150	 2.201135	-4.806559	 5.565567	 0.145796	-0.080594	-5.069533	 0.181760	 1.092948	 1.792304	 2.736620	 89.784380	 61.641260	-179.994600	-20.081320	 52.533500	 12.501240	-1.233244	-1.326069	 7.321387	-4.409154	-5.622303	 0.632918	 6.294036	 24.905640	-0.544162	 1.878524	 44.757010	-6.986898	 0.522198	 24.294070	 3.570339
 0.012738	 0.035948	 1.200691	 4.961864	-1.100056	-2.726088	 2.822580	-11.151600	-172.869800	 0.958301	-39.001650	 0.381131	 57.934660	 81.884070	-62.090690	-2.369655	 31.571830	-0.068952	-8.640005	-31.799500	-175.863400	 10.468370	-49.794830	 8.619753	 14.554520	 74.904510	-10.554460	 2.358830	 33.020850	 0.103705	-7.792630	 8.487442	 2.049562	-2.111377	 2.311466	-1.457329	 3.218784	-2.443655	 1.615045	-93.948510	 58.949500	 175.368700	 16.085290	 35.044800	-38.895920	-1.839544	-0.044630	-0.776629	-1.398161	-20.300380	-8.071501	-4.870168	 19.241560	-2.790600	-3.878906	 21.506360	 2.200088	-4.806323	 5.568370	 0.145631	-0.073541	-5.077944	 0.185345	 1.083565	 1.748558	 2.708474	 89.776960	 61.650460	 179.987800	-20.029390	 52.667850	 12.076570	-1.203168	-1.368114	 7.601761	-4.353470	-5.685764	 0.610933	 6.292508	 24.737990	-0.539094	 1.901110	 44.574170	-7.007024	 0.548331	 24.179340	 3.557107
 0.011494	 0.010666	 1.199185	 5.480501	-0.631365	-2.748516	 2.267349	-10.200740	-173.080400	 1.187196	-38.654820	 0.521259	 62.649980	 82.452210	-66.983540	-2.368769	 31.719640	-0.072293	-10.175220	-33.666740	-176.217300	 10.568670	-46.230740	 8.230453	 15.175780	 75.949950	-11.770770	 2.358980	 32.998470	 0.103189	-8.847921	 8.116281	 1.901074	-2.161587	 2.537901	-1.314127	 3.054002	-2.893483	 1.553655	-94.073550	 58.975090	 175.098800	 15.407920	 33.554140	-39.771520	-2.400909	-0.035648	-0.941445	-1.502044	-21.127960	-8.760251	-4.866168	 19.345060	-2.797648	-3.872006	 21.594470	 2.193073	-4.804763	 5.586706	 0.144559	-0.046618	-5.099389	 0.220327	 0.990805	 1.562225	 2.619864	 89.729300	 61.734260	 179.873800	-19.758920	 53.312710	 10.278300	-1.262781	-1.474824	 8.305126	-4.236903	-5.989303	 0.464340	 6.280644	 23.859100	-0.547313	 2.006423	 43.704060	-7.100599	 0.733174	 23.361190	 3.464755
 0.010154	-0.015550	 1.197445	 5.950209	-0.181009	-2.779456	 1.723586	-9.104763	-173.304400	 1.374720	-38.154500	 0.631416	 67.852500	 82.980910	-72.324330	-2.367959	 31.853060	-0.075327	-11.679110	-35.014950	-176.718400	 10.425510	-41.804340	 7.507628	 16.402430	 76.688030	-13.621320	 2.359066	 32.986000	 0.102897	-9.807451	 7.756641	 1.755975	-2.213161	 2.774405	-1.165042	 2.866476	-3.322961	 1.477816	-94.190810	 58.994280	 174.846100	 14.637480	 32.081560	-40.620040	-2.863479	-0.025897	-1.093427	-1.607367	-21.892590	-9.353318	-4.862032	 19.450610	-2.804578	-3.865359	 21.679090	 2.186327	-4.803271	 5.604302	 0.143525	-0.022499	-5.116971	 0.254883	 0.868303	 1.396954	 2.541213	 89.683930	 61.816710	 179.764400	-19.463180	 53.858530	 8.859857	-1.359121	-1.430990	 8.188576	-4.144450	-6.272786	 0.325553	 6.268990	 23.035530	-0.558920	 2.100886	 42.898330	-7.184122	 0.909316	 22.570520	 3.378791
 0.008987	-0.043578	 1.195266	 6.180314	 0.245566	-2.989647	 1.443259	-7.687884	-173.362200	 1.475278	-37.329960	 0.680780	 73.986770	 83.441210	-78.540700	-2.366609	 32.069850	-0.080270	-12.418080	-35.875450	-176.990300	 10.230350	-36.434350	 6.578098	 14.895410	 75.072980	-12.765940	 2.360360	 32.793950	 0.098447	-10.594840	 7.325471	 1.786947	-2.242816	 3.196035	-0.985555	 2.666760	-3.780176	 1.360913	-94.290050	 58.989350	 174.635300	 13.739340	 30.632670	-41.515900	-3.641098	-0.011583	-1.249603	-1.923896	-22.872960	-9.230398	-4.853253	 19.650330	-2.812728	-3.855982	 21.798210	 2.176795	-4.797987	 5.666525	 0.139882	-0.012627	-5.154053	 0.288419	 0.689073	 1.241395	 2.516588	 89.612930	 61.897410	 179.592900	-19.063030	 54.284330	 7.795898	-1.733117	-1.273296	 7.332173	-4.296728	-6.522975	-0.145389	 6.252126	 22.046460	-0.593187	 2.190190	 42.113420	-7.262711	 1.134242	 21.545570	 3.271979
 0.007672	-0.070671	 1.192591	 6.400757	 0.656784	-3.204189	 1.171179	-6.295596	-173.420700	 1.569190	-36.479820	 0.723312	 80.365260	 83.822790	-84.992100	-2.365225	 32.290020	-0.085303	-13.095510	-36.291010	-177.303900	 10.064300	-30.923150	 5.610505	 14.230820	 73.580730	-12.715060	 2.361547	 32.615040	 0.094310	-11.350000	 6.904486	 1.819480	-2.261039	 3.562898	-0.802725	 2.436363	-4.203968	 1.229217	-94.386340	 58.984030	 174.430900	 12.989220	 29.340660	-42.296040	-4.402864	 0.004435	-1.405100	-2.256822	-23.832580	-9.099088	-4.844452	 19.848970	-2.820693	-3.846640	 21.916630	 2.167299	-4.792599	 5.729984	 0.136152	-0.003173	-5.191138	 0.321024	 0.481466	 1.093747	 2.490853	 89.543110	 61.976060	 179.423300	-18.613060	 54.572500	 7.159884	-2.119411	-0.952205	 5.742198	-4.451643	-6.772741	-0.618486	 6.234872	 21.068580	-0.627617	 2.276423	 41.333520	-7.338228	 1.353256	 20.531090	 3.171249
 0.006216	-0.096105	 1.189248	 6.465835	 0.853929	-3.400912	 1.021436	-4.767642	-173.494700	 1.618762	-35.689850	 0.738684	 84.908160	 84.135060	-89.550350	-2.361551	 32.853100	-0.098268	-12.787250	-36.620190	-177.287200	 9.708370	-26.715510	 4.747383	 20.244920	 75.538050	-19.124450	 2.356558	 33.351140	 0.111404	-12.065830	 6.553044	 1.888059	-2.241608	 4.132658	-0.630502	 2.217829	-4.659655	 1.092591	-94.435190	 58.971550	 174.328800	 12.228290	 28.456190	-42.916760	-5.075976	 0.021386	-1.562767	-2.752833	-24.488580	-8.974704	-4.833688	 20.061150	-2.821823	-3.834244	 22.072930	 2.154720	-4.780231	 5.875262	 0.127602	 0.011893	-5.240973	 0.333496	 0.275988	 0.930957	 2.442656	 89.487540	 62.016690	 179.288200	-17.961900	 54.724750	 6.559201	-2.583489	-0.614526	 4.170784	-4.608205	-7.174902	-1.344497	 6.212996	 19.918230	-0.674192	 2.426116	 39.926090	-7.468423	 1.595520	 19.390250	 3.063694
 0.004232	-0.124121	 1.184199	 6.552406	 1.045314	-3.616971	 0.835673	-3.080874	-173.597300	 1.687860	-34.958140	 0.765099	 90.860900	 84.463320	-95.527280	-2.356486	 33.591160	-0.115435	-12.288410	-37.930180	-177.205400	 9.556943	-23.978810	 4.230133	 30.602520	 77.797150	-29.888810	 2.350250	 34.222070	 0.131916	-12.867620	 6.213124	 1.960144	-2.200359	 4.711010	-0.426569	 1.934163	-5.158798	 0.919274	-94.487510	 58.954940	 174.220100	 11.494200	 27.631730	-43.572000	-5.780583	 0.042335	-1.742036	-3.332615	-25.278010	-8.920557	-4.824724	 20.284730	-2.836772	-3.819873	 22.253600	 2.140115	-4.765182	 6.051756	 0.117163	 0.032286	-5.297210	 0.346367	 0.016513	 0.760742	 2.368139	 89.427980	 62.050240	 179.143200	-17.206210	 54.887950	 5.413340	-3.073146	-0.422027	 3.421390	-4.753227	-7.673985	-2.146810	 6.188806	 18.620600	-0.717946	 2.587817	 38.325130	-7.607676	 1.864183	 18.102660	 2.949314
 0.002105	-0.149566	 1.178862	 6.699186	 1.061839	-3.758375	 0.575700	-1.384778	-173.766500	 1.801919	-34.305550	 0.816897	 92.812320	 84.755170	-97.516740	-2.347076	 34.852780	-0.145341	-12.179820	-39.600420	-177.279000	 9.916210	-22.916500	 4.197633	 33.151920	 77.549190	-33.035330	 2.342235	 35.249970	 0.156560	-13.695450	 6.190810	 2.000020	-2.148405	 5.005300	-0.249912	 1.662299	-5.611772	 0.754337	-94.519270	 58.924880	 174.157300	 10.760180	 27.175360	-43.996890	-6.122160	 0.060622	-1.904523	-3.947939	-26.282770	-9.336597	-4.834707	 20.399510	-2.927987	-3.804668	 22.443600	 2.124684	-4.745228	 6.284918	 0.103296	 0.070230	-5.348596	 0.351265	-0.205740	 0.646842	 2.203169	 89.390360	 62.010620	 179.053600	-16.458630	 55.064560	 3.403645	-3.397915	-0.614720	 4.444728	-4.699846	-8.398733	-2.795558	 6.174825	 17.433190	-0.707926	 2.735464	 36.785610	-7.733442	 2.106277	 16.922700	 2.850782
-0.000324	-0.175830	 1.173070	 6.843381	 1.067351	-3.862743	 0.289706	 0.408779	-173.989100	 1.936015	-33.531680	 0.874762	 92.694110	 85.091000	-97.434430	-2.334934	 36.319200	-0.181012	-12.036460	-41.480800	-177.392000	 10.248110	-22.599460	 4.274331	 34.988810	 77.289710	-35.366420	 2.335238	 36.086320	 0.176976	-14.531500	 6.165086	 2.014417	-2.086294	 5.274187	-0.086629	 1.354477	-6.033085	 0.577414	-94.544310	 58.923200	 174.104400	 10.104910	 26.828530	-44.381480	-6.470586	 0.081306	-2.068478	-4.618053	-27.305410	-9.808253	-4.845726	 20.504900	-3.023415	-3.789624	 22.630770	 2.109403	-4.724335	 6.528357	 0.088721	 0.108426	-5.399279	 0.349460	-0.451239	 0.545472	 2.041255	 89.358250	 61.952530	 178.978200	-15.707120	 55.186970	 1.324065	-3.705809	-0.863848	 5.682704	-4.648772	-9.142627	-3.423681	 6.164655	 16.243180	-0.679428	 2.868169	 35.334790	-7.845264	 2.345019	 15.741270	 2.757938
-0.003465	-0.203585	 1.167202	 6.968257	 1.027770	-3.748967	-0.065977	 2.341245	-174.456200	 2.190910	-32.615950	 0.991034	 80.692400	 85.433780	-85.484530	-2.310448	 38.867540	-0.245678	-11.837110	-43.022840	-177.712200	 10.126310	-22.478650	 4.204699	 27.239990	 75.159550	-27.479500	 2.337149	 35.862440	 0.171478	-15.435560	 6.104622	 1.886645	-1.992274	 5.622005	 0.005001	 1.007899	-6.411761	 0.397463	-94.531520	 59.076010	 174.106200	 9.490396	 26.735970	-44.724670	-6.843386	 0.104611	-2.238535	-5.501857	-28.439410	-10.492660	-4.863015	 20.556790	-3.139186	-3.776079	 22.798510	 2.095649	-4.698993	 6.822430	 0.070990	 0.147230	-5.444949	 0.310806	-0.691393	 0.480488	 1.910984	 89.356990	 61.794780	 178.981200	-15.051140	 55.186040	-0.793012	-3.890705	-1.186004	 7.238692	-4.626896	-10.018180	-3.940065	 6.175472	 15.065440	-0.549412	 2.950671	 34.399300	-7.914161	 2.576499	 14.579460	 2.672130
-0.006718	-0.232278	 1.161999	 7.096333	 0.957276	-3.580160	-0.376004	 4.469623	-174.996200	 2.328662	-31.279070	 1.026220	 61.860000	 85.416400	-66.562620	-2.277505	 41.708320	-0.322407	-11.530950	-43.877370	-178.005200	 9.682230	-22.208360	 3.983957	 21.129150	 72.977380	-20.848300	 2.338881	 35.657230	 0.166455	-16.336450	 6.058632	 1.700014	-1.909086	 5.877949	 0.099561	 0.634224	-6.710023	 0.197858	-94.514640	 59.215620	 174.118900	 8.995170	 26.708410	-44.900440	-7.234586	 0.129941	-2.407773	-6.358539	-29.451670	-11.119540	-4.878477	 20.609940	-3.245412	-3.764037	 22.946950	 2.083424	-4.673474	 7.117295	 0.053065	 0.186369	-5.481111	 0.276018	-0.949753	 0.436295	 1.816774	 89.355830	 61.643950	 178.983900	-14.423260	 55.085170	-2.379766	-4.067803	-1.323645	 7.995927	-4.631017	-10.867450	-4.398545	 6.193691	 13.910510	-0.398418	 3.026914	 33.511030	-7.977377	 2.796230	 13.462330	 2.594604
